<svg width="153" height="50" viewBox="0 0 153 50" fill="none" xmlns="http://www.w3.org/2000/svg">
<path d="M37.5411 17.6567H19.7194V22.9372H32.3431C31.7243 30.3629 25.5362 33.4982 19.7194 33.4982C12.2524 33.4982 5.77555 27.6401 5.77555 19.4306C5.77555 11.4273 11.9636 5.2805 19.7194 5.2805C25.7012 5.2805 29.249 9.11712 29.249 9.11712L32.9619 5.2805C32.9619 5.2805 28.2177 0 19.5544 0C8.53956 0 0 9.32339 0 19.3481C0 29.2078 8.04451 38.8199 19.8431 38.8199C30.2391 38.8199 37.8298 31.683 37.8298 21.1633C37.8298 18.9355 37.5411 17.6567 37.5411 17.6567Z" fill="#4285F4"/>
<path d="M52.1042 13.82C44.8023 13.82 39.563 19.5543 39.563 26.1962C39.563 32.9619 44.6373 38.7787 52.1867 38.7787C59.0349 38.7787 64.6042 33.5394 64.6042 26.3612C64.6454 18.0692 58.1273 13.82 52.1042 13.82ZM52.1867 18.7293C55.7758 18.7293 59.1999 21.617 59.1999 26.32C59.1999 30.8992 55.8171 33.9107 52.1867 33.9107C48.1851 33.9107 45.0498 30.7341 45.0498 26.32C45.0498 21.9471 48.1439 18.7293 52.1867 18.7293Z" fill="#EA4335"/>
<path d="M79.4134 13.82C72.1114 13.82 66.8722 19.5543 66.8722 26.1962C66.8722 32.9619 71.9464 38.7787 79.4959 38.7787C86.344 38.7787 91.9133 33.5394 91.9133 26.3612C91.9133 18.0692 85.3952 13.82 79.4134 13.82ZM79.4959 18.7293C83.085 18.7293 86.5091 21.617 86.5091 26.32C86.5091 30.8992 83.1262 33.9107 79.4959 33.9107C75.4943 33.9107 72.359 30.7341 72.359 26.32C72.3177 21.9471 75.453 18.7293 79.4959 18.7293Z" fill="#FBBC05"/>
<path d="M106.147 13.82C99.4226 13.82 94.1833 19.6781 94.1833 26.2787C94.1833 33.7869 100.289 38.7787 106.064 38.7787C109.612 38.7787 111.51 37.376 112.913 35.7259V38.2011C112.913 42.4915 110.314 45.0905 106.353 45.0905C102.558 45.0905 100.619 42.244 99.9589 40.6351L95.1734 42.6565C96.8648 46.2456 100.289 49.9997 106.394 49.9997C113.078 49.9997 118.152 45.7918 118.152 37.0047V14.5626H112.913V16.6666C111.304 14.9752 109.076 13.82 106.147 13.82ZM106.642 18.7293C109.942 18.7293 113.325 21.5345 113.325 26.32C113.325 31.1879 109.942 33.8694 106.601 33.8694C103.012 33.8694 99.7114 30.9817 99.7114 26.3612C99.6701 21.5758 103.135 18.7293 106.642 18.7293Z" fill="#4285F4"/>
<path d="M141.377 13.82C135.065 13.82 129.744 18.853 129.744 26.2787C129.744 34.1582 135.684 38.8199 141.996 38.8199C147.276 38.8199 150.536 35.9321 152.433 33.3331L148.102 30.4454C146.988 32.178 145.09 33.8694 141.996 33.8694C138.489 33.8694 136.88 31.9305 135.89 30.0741L152.639 23.1434L151.773 21.122C150.164 17.1204 146.369 13.82 141.377 13.82ZM141.625 18.6055C143.894 18.6055 145.544 19.8019 146.245 21.287L135.065 25.9487C134.57 22.3183 137.994 18.6055 141.625 18.6055Z" fill="#EA4335"/>
<path d="M127.268 1.27896H121.782V38.0775H127.268V1.27896Z" fill="#34A853"/>
</svg>
