<svg width="211" height="45" viewBox="0 0 211 45" fill="none" xmlns="http://www.w3.org/2000/svg">
<path d="M210.852 20.3072V16.5895H206.246V10.8188L206.08 10.8743L201.752 12.206H201.641V16.5895H194.816V14.1481C194.816 13.0383 195.093 12.1505 195.593 11.5956C196.092 11.0408 196.813 10.7078 197.701 10.7078C198.367 10.7078 199.033 10.8743 199.699 11.1517L199.865 11.2072V7.3231L199.81 7.26762C199.199 7.04567 198.312 6.93469 197.257 6.93469C195.926 6.93469 194.705 7.21213 193.651 7.8225C192.596 8.37737 191.764 9.20968 191.154 10.2639C190.543 11.3182 190.266 12.5389 190.266 13.8706V16.534H187.048V20.2517H190.266V35.8992H194.871V20.2517H201.696V30.2395C201.696 34.3455 203.638 36.3986 207.412 36.3986C208.022 36.3986 208.688 36.3431 209.354 36.1766C210.02 36.0102 210.519 35.8992 210.796 35.7327L210.852 35.6772V31.9596L210.685 32.0705C210.408 32.237 210.13 32.348 209.742 32.459C209.354 32.5699 209.076 32.6254 208.854 32.6254C207.966 32.6254 207.301 32.4035 206.912 31.9041C206.524 31.4047 206.302 30.5724 206.302 29.4071V20.3072H210.852ZM176.782 32.6254C175.118 32.6254 173.786 32.0705 172.843 30.9608C171.9 29.851 171.456 28.2974 171.456 26.2998C171.456 24.2468 171.955 22.6377 172.843 21.5279C173.786 20.4182 175.062 19.8633 176.727 19.8633C178.336 19.8633 179.612 20.4182 180.5 21.4724C181.388 22.5267 181.887 24.1358 181.887 26.1889C181.887 28.2974 181.443 29.9065 180.611 30.9608C179.723 32.126 178.447 32.6254 176.782 32.6254ZM176.949 16.1456C173.786 16.1456 171.234 17.0889 169.403 18.92C167.572 20.7511 166.684 23.3035 166.684 26.5218C166.684 29.5736 167.572 31.9596 169.347 33.7352C171.123 35.5108 173.509 36.3986 176.45 36.3986C179.557 36.3986 181.998 35.4553 183.829 33.5687C185.66 31.6821 186.548 29.1852 186.548 26.0779C186.548 23.0261 185.716 20.5291 183.996 18.809C182.331 17.0334 180.001 16.1456 176.949 16.1456ZM159.304 16.1456C157.14 16.1456 155.364 16.7005 153.977 17.8103C152.59 18.92 151.924 20.3627 151.924 22.0828C151.924 22.9706 152.091 23.8029 152.368 24.4688C152.645 25.1346 153.145 25.745 153.755 26.2444C154.366 26.7437 155.309 27.2986 156.53 27.798C157.584 28.2419 158.361 28.5748 158.86 28.9078C159.359 29.1852 159.692 29.4626 159.859 29.7401C160.025 30.0175 160.136 30.4059 160.136 30.8498C160.136 32.126 159.137 32.7919 157.14 32.7919C156.419 32.7919 155.531 32.6254 154.643 32.348C153.7 32.0151 152.867 31.6266 152.091 31.0163L151.924 30.9053V35.3443L151.98 35.3998C152.645 35.6772 153.478 35.9547 154.421 36.1766C155.364 36.3986 156.252 36.4541 157.029 36.4541C159.359 36.4541 161.301 35.8992 162.633 34.7894C164.02 33.6797 164.742 32.1815 164.742 30.4059C164.742 29.1297 164.353 27.9645 163.632 27.0767C162.911 26.1889 161.579 25.3566 159.803 24.6352C158.361 24.0803 157.473 23.581 157.084 23.1925C156.696 22.8596 156.53 22.3602 156.53 21.6944C156.53 21.1395 156.751 20.6956 157.251 20.3072C157.75 19.9188 158.361 19.7523 159.193 19.7523C159.97 19.7523 160.747 19.8633 161.523 20.0852C162.3 20.3072 162.966 20.6401 163.576 21.0285L163.743 21.1395V16.9225L163.687 16.867C163.133 16.645 162.467 16.4231 161.634 16.3121C160.747 16.2566 159.97 16.1456 159.304 16.1456ZM139.883 32.6254C138.219 32.6254 136.887 32.0705 135.944 30.9608C135 29.851 134.556 28.2974 134.556 26.2998C134.556 24.2468 135.056 22.6377 135.944 21.5279C136.887 20.4182 138.163 19.8633 139.828 19.8633C141.437 19.8633 142.713 20.4182 143.601 21.4724C144.489 22.5267 144.988 24.1358 144.988 26.1889C144.988 28.2974 144.544 29.9065 143.712 30.9608C142.88 32.126 141.603 32.6254 139.883 32.6254ZM140.105 16.1456C136.942 16.1456 134.39 17.0889 132.559 18.92C130.728 20.7511 129.84 23.3035 129.84 26.5218C129.84 29.5736 130.728 31.9596 132.503 33.7352C134.279 35.5108 136.665 36.3986 139.606 36.3986C142.713 36.3986 145.155 35.4553 146.986 33.5687C148.817 31.6821 149.705 29.1852 149.705 26.0779C149.705 23.0261 148.872 20.5291 147.152 18.809C145.488 17.0334 143.102 16.1456 140.105 16.1456ZM122.849 19.9743V16.645H118.299V35.9547H122.849V26.0779C122.849 24.4133 123.237 23.0261 123.958 21.9718C124.68 20.9176 125.678 20.4182 126.899 20.4182C127.288 20.4182 127.787 20.4737 128.286 20.6401C128.786 20.7511 129.119 20.9176 129.341 21.084L129.507 21.195V16.5895L129.452 16.534C129.008 16.3676 128.453 16.2566 127.676 16.2566C126.511 16.2566 125.512 16.645 124.624 17.3664C123.903 18.0322 123.348 18.8645 122.849 19.9743ZM110.197 16.1456C108.089 16.1456 106.258 16.5895 104.649 17.4773C103.04 18.3651 101.819 19.6413 100.986 21.2505C100.154 22.8596 99.7103 24.7462 99.7103 26.7992C99.7103 28.6303 100.099 30.2949 100.931 31.7931C101.763 33.2913 102.873 34.4565 104.316 35.2333C105.758 36.0102 107.423 36.4541 109.31 36.4541C111.474 36.4541 113.305 36.0102 114.803 35.1778L114.858 35.1224V30.9608L114.692 31.1273C114.026 31.6267 113.249 32.0151 112.472 32.2925C111.696 32.5699 110.919 32.7364 110.308 32.7364C108.533 32.7364 107.09 32.1815 106.036 31.0718C104.982 29.962 104.482 28.4084 104.482 26.4663C104.482 24.5243 105.037 22.9151 106.147 21.7499C107.257 20.5846 108.644 19.9743 110.419 19.9743C111.918 19.9743 113.36 20.4737 114.747 21.4724L114.914 21.5834V17.1999L114.858 17.1444C114.359 16.867 113.638 16.5895 112.75 16.4231C111.862 16.2566 110.974 16.1456 110.197 16.1456ZM96.603 16.645H92.053V35.9547H96.603V16.645ZM94.3835 8.37737C93.6621 8.37737 92.9963 8.65481 92.4414 9.15419C91.8865 9.65358 91.6091 10.3194 91.6091 11.0408C91.6091 11.7621 91.8865 12.428 92.3859 12.9273C92.9408 13.4267 93.5512 13.6487 94.328 13.6487C95.1048 13.6487 95.7707 13.4267 96.27 12.9273C96.8249 12.428 97.1024 11.8176 97.1024 11.0408C97.1024 10.3194 96.8249 9.70907 96.3255 9.15419C95.8261 8.65481 95.1603 8.37737 94.3835 8.37737ZM83.064 15.2023V35.9547H87.725V8.98773H81.2884L73.1317 29.0187L65.197 8.98773H58.5385V35.9547H62.922V15.2023H63.0885L71.4671 35.9547H74.7409L82.953 15.2023H83.064Z" fill="#706D6E"/>
<path d="M21.3627 21.3627H0V0H21.3627V21.3627Z" fill="#F1511B"/>
<path d="M44.9994 21.3627H23.6367V0H44.9994V21.3627Z" fill="#80CC28"/>
<path d="M21.3627 45.0004H0V23.5822H21.3627V45.0004Z" fill="#00ADEF"/>
<path d="M44.9994 45.0004H23.6367V23.5822H44.9994V45.0004Z" fill="#FBBC09"/>
</svg>
