<svg width="14" height="18" viewBox="0 0 14 18" fill="none" xmlns="http://www.w3.org/2000/svg">
<path fill-rule="evenodd" clip-rule="evenodd" d="M5.8286 11.7417C5.81334 11.7936 5.79959 11.8368 5.78789 11.8806C5.12653 14.4706 5.05327 15.046 4.3741 16.2497C4.04952 16.821 3.68476 17.3628 3.28082 17.8817C3.23503 17.9402 3.19281 18.0155 3.10175 17.9972C3.00203 17.9758 2.99439 17.8863 2.98319 17.8064C2.87432 17.0194 2.81482 16.2298 2.84076 15.4357C2.87485 14.4004 3.00303 14.0453 4.33746 8.43284C4.3573 8.34737 4.33543 8.27666 4.30694 8.19882C3.98745 7.33752 3.92437 6.46299 4.20316 5.57676C4.80704 3.66236 6.97732 3.51584 7.35685 5.09549C7.59036 6.07227 6.97226 7.35023 6.4976 9.2397C6.10434 10.799 7.93936 11.907 9.50832 10.769C10.9542 9.71996 11.5158 7.20423 11.409 5.42159C11.1989 1.86752 7.30192 1.09932 4.82841 2.24399C1.99421 3.55451 1.34962 7.06839 2.62962 8.67398C2.7914 8.87849 2.91657 9.00314 2.86315 9.21071C2.78073 9.53172 2.70798 9.85579 2.61946 10.1758C2.55332 10.4134 2.35387 10.5004 2.11323 10.4022C1.64163 10.2114 1.24839 9.91125 0.929407 9.51544C-0.157267 8.16982 -0.468126 5.50706 0.968563 3.25384C2.56093 0.756423 5.52285 -0.253431 8.22631 0.0533407C11.4558 0.420144 13.4969 2.62707 13.8795 5.13008C14.0534 6.27069 13.9283 9.0825 12.3278 11.0702C10.4856 13.3539 7.50032 13.505 6.12315 12.1034C6.01733 11.9961 5.93238 11.8699 5.8286 11.7417Z" fill="white"/>
</svg>
