<svg width="22" height="18" viewBox="0 0 22 18" fill="none" xmlns="http://www.w3.org/2000/svg">
<path d="M21.78 2.15762C21.085 2.47202 20.3173 2.66229 19.5679 2.78795C19.9236 2.72842 20.446 2.08436 20.6556 1.82389C20.9751 1.42707 21.2402 0.974281 21.3892 0.485381C21.4086 0.447225 21.4233 0.399404 21.3847 0.370406C21.3369 0.351583 21.3058 0.361255 21.2677 0.380079C20.4308 0.82828 19.5659 1.15336 18.6451 1.38382C18.5688 1.40265 18.5118 1.38382 18.464 1.33549C18.3882 1.24951 18.3159 1.16812 18.235 1.10147C17.8479 0.772318 17.4328 0.51387 16.9647 0.323092C16.3502 0.0727911 15.6786 -0.0335303 15.0167 0.00920395C14.3722 0.0514295 13.7398 0.232542 13.1685 0.531173C12.5957 0.830313 12.0844 1.24697 11.6769 1.7491C11.2561 2.26903 10.9458 2.88207 10.7866 3.53275C10.6339 4.16053 10.6462 4.7812 10.7398 5.4156C10.754 5.52091 10.7443 5.53515 10.6492 5.52091C7.04781 4.9847 4.06251 3.69656 1.63887 0.934605C1.53356 0.814542 1.47659 0.814537 1.39062 0.943757C0.32989 2.53357 0.844211 5.08695 2.16897 6.34202C2.34602 6.5099 2.52715 6.67677 2.72302 6.82939C2.65129 6.84414 1.77013 6.74901 0.984126 6.34202C0.879325 6.27537 0.825918 6.31404 0.81676 6.43308C0.807094 6.60504 0.821832 6.76326 0.845234 6.94946C1.04873 8.56064 2.16492 10.0507 3.69318 10.6327C3.87429 10.7091 4.07525 10.7757 4.27061 10.8093C3.92263 10.8856 3.56397 10.94 2.56531 10.8617C2.44118 10.8383 2.39386 10.9003 2.44117 11.0199C3.19207 13.0645 4.81087 13.6735 6.02422 14.0199C6.18651 14.0484 6.34933 14.0484 6.51213 14.0866C6.50195 14.1013 6.49226 14.1013 6.4826 14.1156C6.08069 14.7286 4.68574 15.185 4.03608 15.4119C2.85478 15.825 1.56818 16.0107 0.319725 15.8875C0.120298 15.858 0.0780758 15.8606 0.0241492 15.8875C-0.0307949 15.9216 0.0165178 15.9694 0.081128 16.0213C0.334481 16.1887 0.592399 16.3368 0.855419 16.4802C1.64804 16.9004 2.47474 17.2352 3.3396 17.4738C7.80381 18.7065 12.8322 17.8004 16.1843 14.4702C18.8165 11.8547 19.7394 8.24776 19.7394 4.63671C19.7394 4.49528 19.9063 4.41744 20.005 4.34266C20.6902 3.82832 21.2427 3.21224 21.7535 2.52493C21.8685 2.37027 21.8695 2.23291 21.8695 2.17644C21.8695 2.16677 21.8695 2.15762 21.8695 2.15762C21.8695 2.09962 21.8685 2.11743 21.78 2.15762Z" fill="white"/>
</svg>
