<svg width="18" height="18" viewBox="0 0 18 18" fill="none" xmlns="http://www.w3.org/2000/svg">
<path d="M5.08036 14.8997L5.3851 15.0813C6.50384 15.7478 7.77673 16.1003 9.06539 16.1003C13.0412 16.1003 16.2754 12.8662 16.2754 8.89036C16.2754 4.91501 13.0412 1.6804 9.06539 1.6804C5.09054 1.6804 1.85542 4.91501 1.85542 8.89036C1.85542 10.2029 2.22018 11.4957 2.91055 12.6286L3.09726 12.9354L2.37687 15.6241L5.08036 14.8997ZM0 18L1.29019 13.1857C0.559628 11.867 0.175534 10.3902 0.175534 8.89036C0.175534 3.98858 4.1631 0 9.06539 0C13.9677 0 17.9563 3.98858 17.9563 8.89036C17.9563 13.7927 13.9677 17.7812 9.06539 17.7812C7.59409 17.7812 6.14058 17.4093 4.83972 16.7042L0 18Z" fill="white"/>
<path fill-rule="evenodd" clip-rule="evenodd" d="M12.3725 10.1271C12.0062 9.90788 11.5305 9.66368 11.0991 9.8397C10.7689 9.97554 10.5578 10.4934 10.3431 10.7575C10.2332 10.8933 10.102 10.9142 9.93305 10.8465C8.69171 10.3515 7.74036 9.52275 7.05508 8.38112C6.93908 8.20357 6.95992 8.06367 7.09982 7.89934C7.30688 7.65565 7.56686 7.37889 7.62282 7.05024C7.67878 6.7221 7.52465 6.3385 7.38882 6.04546C7.21533 5.67204 7.0215 5.13939 6.64706 4.92775C6.30315 4.73341 5.84985 4.84227 5.54358 5.09156C5.01449 5.52298 4.75908 6.19759 4.76671 6.8671C4.76925 7.05737 4.79265 7.24713 4.83691 7.43028C4.94375 7.87136 5.14726 8.28395 5.37721 8.67518C5.55018 8.97076 5.73842 9.2577 5.94142 9.53344C6.60533 10.4355 7.43155 11.2194 8.38799 11.8055C8.86621 12.098 9.38054 12.355 9.91371 12.531C10.5115 12.7284 11.0442 12.9339 11.6898 12.8113C12.3654 12.6831 13.0324 12.2649 13.3005 11.6137C13.3798 11.4204 13.4195 11.2057 13.3752 11.0022C13.2831 10.5809 12.7133 10.3306 12.3725 10.1271Z" fill="white"/>
</svg>
