<svg width="16" height="18" viewBox="0 0 16 18" fill="none" xmlns="http://www.w3.org/2000/svg">
<path d="M15.4008 7.28289C15.2536 7.29686 15.106 7.30434 14.9578 7.30534C13.3368 7.30534 11.8254 6.48832 10.9376 5.1321V12.5312C10.9376 15.5519 8.48848 18 5.46878 18C2.44808 18 0 15.5519 0 12.5312C0 9.51101 2.44808 7.06293 5.46878 7.06293C5.5825 7.06293 5.69423 7.07291 5.80646 7.07989V9.77487C5.69423 9.7614 5.584 9.74095 5.46878 9.74095C3.927 9.74095 2.67752 10.9909 2.67752 12.5317C2.67752 14.0735 3.927 15.323 5.46878 15.323C7.01055 15.323 8.37177 14.1084 8.37177 12.5666L8.3992 0H10.9775C11.2204 2.31191 13.0844 4.11805 15.4033 4.28764V7.28289" fill="white"/>
</svg>
