<svg width="167" height="50" viewBox="0 0 167 50" fill="none" xmlns="http://www.w3.org/2000/svg">
<path d="M25 0C11.1974 0 0 11.1974 0 25C0 38.8026 11.1974 50 25 50C38.8026 50 50 38.8026 50 25C50.0457 11.1974 38.8483 0 25 0ZM36.4717 36.0603C36.0146 36.7916 35.0548 37.0201 34.3236 36.5631C28.4278 32.9525 21.0695 32.1755 12.34 34.1408C11.5174 34.3236 10.649 33.8208 10.4662 32.9525C10.2834 32.1298 10.7861 31.2614 11.6545 31.0786C21.2066 28.8848 29.3419 29.8446 35.9689 33.8665C36.7002 34.3693 36.9287 35.3291 36.4717 36.0603ZM39.5338 29.2504C38.9854 30.1645 37.7514 30.4388 36.8373 29.8903C30.1188 25.777 19.8812 24.543 11.9287 26.9653C10.8775 27.2852 9.82633 26.691 9.5064 25.6856C9.18647 24.6344 9.78062 23.5832 10.7861 23.2632C19.8812 20.521 31.17 21.8464 38.894 26.5996C39.808 27.1481 40.128 28.3364 39.5338 29.2504ZM39.808 22.1664C31.7642 17.3675 18.4643 16.9561 10.7404 19.287C9.5064 19.6526 8.18099 18.9671 7.81535 17.7331C7.44972 16.4991 8.13528 15.1737 9.36929 14.808C18.1901 12.1115 32.9068 12.66 42.1846 18.1444C43.2815 18.7843 43.6472 20.2468 43.0073 21.3437C42.3675 22.4406 40.9049 22.8062 39.808 22.1664ZM68.053 23.0804C63.7111 22.0292 62.9799 21.3437 62.9799 19.7898C62.9799 18.3729 64.351 17.3675 66.362 17.3675C68.3272 17.3675 70.2468 18.0987 72.2578 19.6069C72.3035 19.6526 72.3949 19.6526 72.4863 19.6526C72.5777 19.6526 72.6234 19.6069 72.6691 19.5155L74.7715 16.5448C74.8629 16.4077 74.8172 16.2706 74.7258 16.1792C72.3035 14.2596 69.6069 13.2998 66.4077 13.2998C61.7459 13.2998 58.5009 16.0877 58.5009 20.1097C58.5009 24.4058 61.3345 25.9141 66.1792 27.1024C70.2925 28.0622 71.0238 28.8391 71.0238 30.2559C71.0238 31.8556 69.6069 32.8154 67.3217 32.8154C64.808 32.8154 62.7514 31.947 60.4205 29.9817C60.3748 29.936 60.2834 29.8903 60.1919 29.8903C60.1005 29.8903 60.0548 29.936 60.0091 29.9817L57.6325 32.8154C57.5411 32.9525 57.5411 33.0896 57.6782 33.2267C60.3748 35.6033 63.6654 36.883 67.1846 36.883C72.2121 36.883 75.457 34.1408 75.457 29.8903C75.457 26.3254 73.3089 24.3601 68.053 23.0804ZM86.8373 18.83C84.6435 18.83 82.8611 19.6983 81.3985 21.4351V19.4698C81.3985 19.3327 81.2614 19.1956 81.1243 19.1956H77.2395C77.1024 19.1956 76.9653 19.3327 76.9653 19.4698V41.4534C76.9653 41.5905 77.1024 41.7276 77.2395 41.7276H81.1243C81.2614 41.7276 81.3985 41.5905 81.3985 41.4534V34.5064C82.8611 36.1517 84.6435 36.9744 86.8373 36.9744C90.9049 36.9744 94.9726 33.8665 94.9726 27.925C94.9726 21.9378 90.9049 18.83 86.8373 18.83ZM90.4936 27.8793C90.4936 30.8958 88.6197 33.0439 85.9689 33.0439C83.3181 33.0439 81.3071 30.8501 81.3071 27.8793C81.3071 24.9543 83.3181 22.7148 85.9689 22.7148C88.574 22.7605 90.4936 24.9086 90.4936 27.8793ZM105.484 18.83C100.274 18.83 96.2066 22.8519 96.2066 27.9707C96.2066 33.0439 100.274 37.0201 105.439 37.0201C110.649 37.0201 114.762 32.9982 114.762 27.925C114.762 22.8062 110.695 18.83 105.484 18.83ZM105.484 33.0896C102.697 33.0896 100.64 30.8501 100.64 27.925C100.64 24.9543 102.651 22.8062 105.439 22.8062C108.227 22.8062 110.329 25.0457 110.329 27.9707C110.329 30.9415 108.272 33.0896 105.484 33.0896ZM125.868 19.1499H121.618V14.808C121.618 14.6709 121.481 14.5338 121.344 14.5338H117.459C117.322 14.5338 117.185 14.6709 117.185 14.808V19.1499H115.311C115.174 19.1499 115.037 19.287 115.037 19.4241V22.7605C115.037 22.8976 115.174 23.0347 115.311 23.0347H117.185V31.6271C117.185 35.1005 118.921 36.883 122.349 36.883C123.72 36.883 124.863 36.6088 125.96 35.9689C126.051 35.9232 126.097 35.8318 126.097 35.7404V32.5868C126.097 32.4954 126.051 32.404 125.96 32.3583C125.868 32.3126 125.777 32.3126 125.686 32.3583C124.954 32.7239 124.223 32.9068 123.4 32.9068C122.166 32.9068 121.618 32.3583 121.618 31.0786V23.0804H125.868C126.005 23.0804 126.143 22.9433 126.143 22.8062V19.4698C126.188 19.287 126.051 19.1956 125.868 19.1499ZM140.722 19.1956V18.6472C140.722 17.0932 141.316 16.362 142.687 16.362C143.51 16.362 144.15 16.5448 144.881 16.7733C144.973 16.819 145.064 16.7733 145.155 16.7276C145.247 16.6819 145.292 16.5905 145.292 16.4991V13.2541C145.292 13.117 145.201 13.0256 145.11 12.9799C144.333 12.7514 143.373 12.5228 141.91 12.5228C138.346 12.5228 136.472 14.5338 136.472 18.3272V19.1499H134.598C134.461 19.1499 134.324 19.287 134.324 19.4241V22.7605C134.324 22.8976 134.461 23.0347 134.598 23.0347H136.472V36.2888C136.472 36.426 136.609 36.5631 136.746 36.5631H140.631C140.768 36.5631 140.905 36.426 140.905 36.2888V23.0347H144.516L150.046 36.2888C149.406 37.66 148.812 37.9799 147.943 37.9799C147.258 37.9799 146.526 37.7971 145.795 37.3857C145.704 37.34 145.658 37.34 145.567 37.3857C145.475 37.4314 145.43 37.4771 145.384 37.5228L144.058 40.4022C144.013 40.5393 144.058 40.6764 144.196 40.7678C145.567 41.4991 146.801 41.819 148.309 41.819C151.143 41.819 152.742 40.4936 154.113 36.9287L160.832 19.6069C160.877 19.5155 160.877 19.4241 160.786 19.3327C160.74 19.2413 160.649 19.1956 160.558 19.1956H156.536C156.399 19.1956 156.307 19.287 156.261 19.3784L152.148 31.17L147.623 19.3784C147.578 19.287 147.486 19.1956 147.349 19.1956H140.722ZM132.13 19.1499H128.245C128.108 19.1499 127.971 19.287 127.971 19.4241V36.2888C127.971 36.426 128.108 36.5631 128.245 36.5631H132.13C132.267 36.5631 132.404 36.426 132.404 36.2888V19.4241C132.404 19.287 132.267 19.1499 132.13 19.1499ZM130.21 11.4717C128.656 11.4717 127.422 12.7057 127.422 14.2596C127.422 15.8135 128.656 17.0475 130.21 17.0475C131.764 17.0475 132.998 15.8135 132.998 14.2596C132.952 12.7514 131.718 11.4717 130.21 11.4717ZM164.077 24.5887C162.569 24.5887 161.335 23.3547 161.335 21.8464C161.335 20.3382 162.523 19.1042 164.077 19.1042C165.585 19.1042 166.819 20.3382 166.819 21.8464C166.819 23.3547 165.631 24.5887 164.077 24.5887ZM164.077 19.4241C162.66 19.4241 161.609 20.521 161.609 21.8921C161.609 23.2632 162.66 24.3601 164.031 24.3601C165.448 24.3601 166.499 23.2632 166.499 21.8921C166.545 20.521 165.494 19.4241 164.077 19.4241ZM164.717 22.1207L165.494 23.2175H164.854L164.168 22.2121H163.574V23.2175H163.026V20.3382H164.305C164.991 20.3382 165.402 20.6581 165.402 21.2523C165.356 21.755 165.082 22.0292 164.717 22.1207ZM164.26 20.8409H163.574V21.755H164.26C164.625 21.755 164.808 21.5722 164.808 21.298C164.808 21.0238 164.579 20.8409 164.26 20.8409Z" fill="#1ED760"/>
</svg>
